# xmcd CD database file
#
# Track frame offsets:
#	150
#	11467
#	22115
#	41777
#	56432
#	71935
#	91012
#	101615
#	117305
#	129800
#	140195
#	153142
#	170600
#	196495
#	212630
#	225727
#	239737
#	253797
#	267217
#	281370
#
# Disc length: 4042 seconds
#
# Revision: 0
# Processed by: cddbd v1.5.1PL2 Copyright (c) Steve Scherf et al.
# Submitted via: CDex 1.51
#
DISCID=210fc814
DTITLE=Wes Montgomery - Classics Volume 22
DYEAR=1967
DGENRE=Jazz
TTITLE0=California Nights
TTITLE1=Windy
TTITLE2=Switchin'
TTITLE3=I Say A Little Prayer For You
TTITLE4=Yesterday
TTITLE5=Pata Pata
TTITLE6=Wind Song
TTITLE7=Butterfly
TTITLE8=Georgia On My Mind
TTITLE9=Hello Young Lovers
TTITLE10=Fly Me To The Moon
TTITLE11=Road Song
TTITLE12=A Day In The Life
TTITLE13=Down Here On The Ground
TTITLE14=When A Man Loves A Woman
TTITLE15=Eleanor Rigby
TTITLE16=Where Have All The Flowers Gone
TTITLE17=Know It All
TTITLE18=My Favorite Things
TTITLE19=Scarborough Fair
EXTD=YEAR: 1967
EXTT0=
EXTT1=
EXTT2=
EXTT3=
EXTT4=
EXTT5=
EXTT6=
EXTT7=
EXTT8=
EXTT9=
EXTT10=
EXTT11=
EXTT12=
EXTT13=
EXTT14=
EXTT15=
EXTT16=
EXTT17=
EXTT18=
EXTT19=
PLAYORDER=
